<svg xmlns="http://www.w3.org/2000/svg" width="2400" height="1625" viewBox="0 0 2400 1625">
<defs><marker id="arrow" viewBox="0 0 10 10" refX="9" refY="5" markerWidth="9" markerHeight="9" orient="auto-start-reverse"><path d="M0 0 L10 5 L0 10 Z" fill="#405574"/></marker></defs>
<style>text{font-family:DejaVu Sans,sans-serif;fill:#17253c}</style>
<rect width="2400" height="1625" fill="#f7f9fc"/>
<text x="65" y="72" font-size="36" fill="#17253c" style="fill:#17253c" font-weight="700" text-anchor="start">BUNZINA / EKS — REDE E RECURSOS DA APLICAÇÃO</text>
<text x="65" y="115" font-size="21" fill="#61728b" style="fill:#61728b" font-weight="400" text-anchor="start">Arquitetura em Terraform e Helm</text>
<rect x="450" y="165" width="1890" height="1120" rx="12" fill="#f1f6fc" stroke="#9eb3ce" stroke-width="2"/>
<text x="480" y="205" font-size="24" fill="#17253c" style="fill:#17253c" font-weight="700" text-anchor="start">AWS / VPC 10.0.0.0/16 · us-east-1a e us-east-1b (valores padrão)</text>
<rect x="490" y="240" width="470" height="840" rx="12" fill="#fff7ed" stroke="#e6b980" stroke-width="2" stroke-dasharray="10 7"/>
<text x="515" y="283" font-size="24" fill="#17253c" style="fill:#17253c" font-weight="700" text-anchor="start">Subnets públicas</text>
<rect x="1020" y="240" width="1270" height="965" rx="12" fill="#eef4ff" stroke="#9bb7e3" stroke-width="2" stroke-dasharray="10 7"/>
<text x="1050" y="281" font-size="26" fill="#17253c" style="fill:#17253c" font-weight="700" text-anchor="start">EKS / nós em subnets privadas</text>
<text x="1050" y="318" font-size="20" fill="#17253c" style="fill:#17253c" font-weight="400" text-anchor="start">Node group: t3.medium · desejado 2 · mínimo 1 / máximo 4</text>
<text x="1050" y="353" font-size="22" fill="#6d28d9" style="fill:#6d28d9" font-weight="700" text-anchor="start">Namespace bunzina</text>
<rect x="65" y="415" width="320" height="125" rx="12" fill="#ffffff" stroke="#d1dae8" stroke-width="2"/>
<path d="M77,415 H373 Q385,415 385,427 V464 H65 V427 Q65,415 77,415" fill="#64748b"/>
<text x="83" y="448" font-size="23" fill="white" style="fill:white" font-weight="700" text-anchor="start">Solicitante</text>
<text x="83" y="496" font-size="20" fill="#17253c" style="fill:#17253c" font-weight="400" text-anchor="start">Rotas da API</text>
<rect x="530" y="415" width="390" height="160" rx="12" fill="#ffffff" stroke="#d1dae8" stroke-width="2"/>
<path d="M542,415 H908 Q920,415 920,427 V464 H530 V427 Q530,415 542,415" fill="#c26b12"/>
<text x="548" y="448" font-size="23" fill="white" style="fill:white" font-weight="700" text-anchor="start">ALB público</text>
<text x="548" y="496" font-size="20" fill="#17253c" style="fill:#17253c" font-weight="400" text-anchor="start">HTTP :80</text>
<text x="548" y="527" font-size="20" fill="#17253c" style="fill:#17253c" font-weight="400" text-anchor="start">target-type: ip</text>
<text x="548" y="558" font-size="20" fill="#17253c" style="fill:#17253c" font-weight="400" text-anchor="start">Health check /health</text>
<rect x="1090" y="445" width="430" height="154" rx="12" fill="#ffffff" stroke="#d1dae8" stroke-width="2"/>
<path d="M1102,445 H1508 Q1520,445 1520,457 V494 H1090 V457 Q1090,445 1102,445" fill="#2563eb"/>
<text x="1108" y="478" font-size="23" fill="white" style="fill:white" font-weight="700" text-anchor="start">Ingress + Service</text>
<text x="1108" y="526" font-size="20" fill="#17253c" style="fill:#17253c" font-weight="400" text-anchor="start">IngressClass: alb</text>
<text x="1108" y="557" font-size="20" fill="#17253c" style="fill:#17253c" font-weight="400" text-anchor="start">Backend: bunzina:80</text>
<text x="1108" y="588" font-size="20" fill="#17253c" style="fill:#17253c" font-weight="400" text-anchor="start">ClusterIP → targetPort :3000</text>
<rect x="1650" y="415" width="570" height="171" rx="12" fill="#ffffff" stroke="#d1dae8" stroke-width="2"/>
<path d="M1662,415 H2208 Q2220,415 2220,427 V464 H1650 V427 Q1650,415 1662,415" fill="#6d28d9"/>
<text x="1668" y="448" font-size="23" fill="white" style="fill:white" font-weight="700" text-anchor="start">Deployment / pods bunzina</text>
<text x="1668" y="496" font-size="20" fill="#17253c" style="fill:#17253c" font-weight="400" text-anchor="start">API Bun + Elysia · porta 3000</text>
<text x="1668" y="527" font-size="20" fill="#17253c" style="fill:#17253c" font-weight="400" text-anchor="start">Middleware de autenticação na API</text>
<text x="1668" y="558" font-size="20" fill="#17253c" style="fill:#17253c" font-weight="400" text-anchor="start">Readiness / liveness: GET /health</text>
<path d="M385,478 L530,478" fill="none" stroke="#405574" stroke-width="2.5" stroke-linejoin="round" marker-end="url(#arrow)"/>
<path d="M920,440 L985,440 L985,380 L1940,380 L1940,415" fill="none" stroke="#405574" stroke-width="2.5" stroke-linejoin="round" marker-end="url(#arrow)"/>
<text x="1440" y="402" font-size="20" fill="#17253c" style="fill:#17253c" font-weight="400" text-anchor="middle">Tráfego HTTP → IP dos pods :3000</text>
<path d="M1520,525 L1650,525" fill="none" stroke="#405574" stroke-width="2.5" stroke-linejoin="round" stroke-dasharray="9 7" marker-end="url(#arrow)"/>
<text x="1585" y="511" font-size="16" fill="#17253c" style="fill:#17253c" font-weight="400" text-anchor="middle">backend</text>
<text x="1110" y="636" font-size="19" fill="#61728b" style="fill:#61728b" font-weight="400" text-anchor="start">Ingress / Service definem o backend lógico.</text>
<text x="1110" y="665" font-size="19" fill="#61728b" style="fill:#61728b" font-weight="400" text-anchor="start">Com target-type: ip, ALB alcança os pods diretamente.</text>
<rect x="1090" y="720" width="430" height="135" rx="12" fill="#ffffff" stroke="#d1dae8" stroke-width="2"/>
<path d="M1102,720 H1508 Q1520,720 1520,732 V769 H1090 V732 Q1090,720 1102,720" fill="#0e7490"/>
<text x="1108" y="753" font-size="23" fill="white" style="fill:white" font-weight="700" text-anchor="start">HPA</text>
<text x="1108" y="801" font-size="20" fill="#17253c" style="fill:#17253c" font-weight="400" text-anchor="start">2–10 réplicas de pods</text>
<text x="1108" y="832" font-size="20" fill="#17253c" style="fill:#17253c" font-weight="400" text-anchor="start">Alvo: 70% de CPU</text>
<rect x="1650" y="720" width="570" height="135" rx="12" fill="#ffffff" stroke="#d1dae8" stroke-width="2"/>
<path d="M1662,720 H2208 Q2220,720 2220,732 V769 H1650 V732 Q1650,720 1662,720" fill="#64748b"/>
<text x="1668" y="753" font-size="23" fill="white" style="fill:white" font-weight="700" text-anchor="start">ConfigMap + Secret</text>
<text x="1668" y="801" font-size="20" fill="#17253c" style="fill:#17253c" font-weight="400" text-anchor="start">envFrom no Deployment</text>
<text x="1668" y="832" font-size="20" fill="#17253c" style="fill:#17253c" font-weight="400" text-anchor="start">Configuração e credenciais em variáveis</text>
<path d="M1520,785 L1585,785 L1585,690 L1810,690 L1810,586" fill="none" stroke="#405574" stroke-width="2.5" stroke-linejoin="round" stroke-dasharray="9 7" marker-end="url(#arrow)"/>
<text x="1598" y="706" font-size="17" fill="#17253c" style="fill:#17253c" font-weight="400" text-anchor="start">escala</text>
<path d="M2000,720 L2000,586" fill="none" stroke="#405574" stroke-width="2.5" stroke-linejoin="round" stroke-dasharray="9 7" marker-end="url(#arrow)"/>
<text x="2015" y="654" font-size="18" fill="#17253c" style="fill:#17253c" font-weight="400" text-anchor="start">env</text>
<rect x="1090" y="975" width="470" height="172" rx="12" fill="#ffffff" stroke="#d1dae8" stroke-width="2"/>
<path d="M1102,975 H1548 Q1560,975 1560,987 V1024 H1090 V987 Q1090,975 1102,975" fill="#0e7490"/>
<text x="1108" y="1008" font-size="23" fill="white" style="fill:white" font-weight="700" text-anchor="start">PostgreSQL in-cluster (opcional)</text>
<text x="1108" y="1056" font-size="20" fill="#17253c" style="fill:#17253c" font-weight="400" text-anchor="start">Service postgres:5432 + StatefulSet</text>
<text x="1108" y="1087" font-size="20" fill="#17253c" style="fill:#17253c" font-weight="400" text-anchor="start">PostgreSQL 15 · PVC gp3 / 10Gi</text>
<text x="1108" y="1118" font-size="20" fill="#17253c" style="fill:#17253c" font-weight="400" text-anchor="start">Deploy sem DB_HOST usa este banco</text>
<path d="M2220,558 L2255,558 L2255,920 L1320,920 L1320,975" fill="none" stroke="#405574" stroke-width="2.5" stroke-linejoin="round" stroke-dasharray="9 7" marker-end="url(#arrow)"/>
<text x="1790" y="908" font-size="19" fill="#17253c" style="fill:#17253c" font-weight="400" text-anchor="middle">Conexão local quando habilitado</text>
<text x="1640" y="1020" font-size="21" fill="#17253c" style="fill:#17253c" font-weight="700" text-anchor="start">Addons declarados em Terraform:</text>
<text x="1640" y="1057" font-size="21" fill="#17253c" style="fill:#17253c" font-weight="400" text-anchor="start">vpc-cni · kube-proxy · coredns</text>
<text x="1640" y="1094" font-size="21" fill="#17253c" style="fill:#17253c" font-weight="400" text-anchor="start">aws-ebs-csi-driver · StorageClass gp3</text>
<text x="515" y="705" font-size="21" fill="#17253c" style="fill:#17253c" font-weight="700" text-anchor="start">ALB recebe as requisições.</text>
<text x="515" y="744" font-size="21" fill="#17253c" style="fill:#17253c" font-weight="400" text-anchor="start">NAT é usado na saída</text>
<text x="515" y="777" font-size="21" fill="#17253c" style="fill:#17253c" font-weight="400" text-anchor="start">das subnets privadas.</text>
<text x="515" y="850" font-size="21" fill="#17253c" style="fill:#17253c" font-weight="700" text-anchor="start">Login serverless:</text>
<text x="515" y="889" font-size="21" fill="#17253c" style="fill:#17253c" font-weight="400" text-anchor="start">POST /auth/login</text>
<text x="515" y="922" font-size="19" fill="#17253c" style="fill:#17253c" font-weight="400" text-anchor="start">API Gateway → Lambda → API</text>
<text x="515" y="955" font-size="18" fill="#61728b" style="fill:#61728b" font-weight="400" text-anchor="start">Fluxo separado deste desenho.</text>
<text x="480" y="1248" font-size="20" fill="#61728b" style="fill:#61728b" font-weight="400" text-anchor="start">Linhas contínuas: tráfego HTTP. Tracejadas: configuração, controle ou conexão condicional com o banco local.</text>
<text x="65" y="1350" font-size="24" fill="#17253c" style="fill:#17253c" font-weight="700" text-anchor="start">SAÍDA DAS SUBNETS PRIVADAS — CAMINHO SEPARADO DO TRÁFEGO DE ENTRADA</text>
<rect x="65" y="1400" width="440" height="130" rx="12" fill="#ffffff" stroke="#d1dae8" stroke-width="2"/>
<path d="M77,1400 H493 Q505,1400 505,1412 V1449 H65 V1412 Q65,1400 77,1400" fill="#2563eb"/>
<text x="83" y="1433" font-size="23" fill="white" style="fill:white" font-weight="700" text-anchor="start">Nós / pods</text>
<text x="83" y="1481" font-size="20" fill="#17253c" style="fill:#17253c" font-weight="400" text-anchor="start">Pull de imagem pelos nós</text>
<text x="83" y="1512" font-size="20" fill="#17253c" style="fill:#17253c" font-weight="400" text-anchor="start">Conexões externas da aplicação</text>
<rect x="645" y="1400" width="395" height="130" rx="12" fill="#ffffff" stroke="#d1dae8" stroke-width="2"/>
<path d="M657,1400 H1028 Q1040,1400 1040,1412 V1449 H645 V1412 Q645,1400 657,1400" fill="#c26b12"/>
<text x="663" y="1433" font-size="23" fill="white" style="fill:white" font-weight="700" text-anchor="start">NAT Gateway</text>
<text x="663" y="1481" font-size="20" fill="#17253c" style="fill:#17253c" font-weight="400" text-anchor="start">1 NAT · subnet pública</text>
<text x="663" y="1512" font-size="20" fill="#17253c" style="fill:#17253c" font-weight="400" text-anchor="start">single_nat_gateway = true</text>
<rect x="1180" y="1400" width="300" height="130" rx="12" fill="#ffffff" stroke="#d1dae8" stroke-width="2"/>
<path d="M1192,1400 H1468 Q1480,1400 1480,1412 V1449 H1180 V1412 Q1180,1400 1192,1400" fill="#c26b12"/>
<text x="1198" y="1433" font-size="23" fill="white" style="fill:white" font-weight="700" text-anchor="start">Internet Gateway</text>
<text x="1198" y="1481" font-size="20" fill="#17253c" style="fill:#17253c" font-weight="400" text-anchor="start">Saída da VPC</text>
<rect x="1640" y="1400" width="690" height="165" rx="12" fill="#ffffff" stroke="#d1dae8" stroke-width="2"/>
<path d="M1652,1400 H2318 Q2330,1400 2330,1412 V1449 H1640 V1412 Q1640,1400 1652,1400" fill="#64748b"/>
<text x="1658" y="1433" font-size="23" fill="white" style="fill:white" font-weight="700" text-anchor="start">Destinos externos</text>
<text x="1658" y="1481" font-size="20" fill="#17253c" style="fill:#17253c" font-weight="400" text-anchor="start">ECR: download da imagem da aplicação</text>
<text x="1658" y="1512" font-size="20" fill="#17253c" style="fill:#17253c" font-weight="400" text-anchor="start">Banco público externo: host definido por DB_HOST</text>
<text x="1658" y="1543" font-size="20" fill="#17253c" style="fill:#17253c" font-weight="400" text-anchor="start">Se DB_HOST for definido, deploy desativa o banco local</text>
<path d="M505,1460 L645,1460" fill="none" stroke="#405574" stroke-width="2.5" stroke-linejoin="round" marker-end="url(#arrow)"/>
<path d="M1040,1460 L1180,1460" fill="none" stroke="#405574" stroke-width="2.5" stroke-linejoin="round" marker-end="url(#arrow)"/>
<path d="M1480,1460 L1640,1460" fill="none" stroke="#405574" stroke-width="2.5" stroke-linejoin="round" marker-end="url(#arrow)"/>
</svg>
